<?xml version="1.0" encoding="UTF-8"?>
<!DOCTYPE svg PUBLIC "-//W3C//DTD SVG 1.1//EN" "http://www.w3.org/Graphics/SVG/1.1/DTD/svg11.dtd">
<svg xmlns="http://www.w3.org/2000/svg" version="1.1" width="1161px" height="215px" style="shape-rendering:geometricPrecision; text-rendering:geometricPrecision; image-rendering:optimizeQuality; fill-rule:evenodd; clip-rule:evenodd" xmlns:xlink="http://www.w3.org/1999/xlink">
<g><path style="opacity:0.945" fill="#000000" d="M 122.5,9.5 C 133.082,9.18009 143.582,9.51343 154,10.5C 154.333,28.5 154.667,46.5 155,64.5C 171.457,53.0739 188.291,52.5739 205.5,63C 213.306,70.1115 217.806,78.9449 219,89.5C 219.5,113.831 219.667,138.164 219.5,162.5C 209.167,162.5 198.833,162.5 188.5,162.5C 188.898,139.804 188.398,117.137 187,94.5C 185.266,86.4342 180.266,82.4342 172,82.5C 163.375,82.7927 158.041,87.126 156,95.5C 154.722,117.458 154.055,139.458 154,161.5C 143.582,162.487 133.082,162.82 122.5,162.5C 122.5,111.5 122.5,60.5 122.5,9.5 Z"/></g>
<g><path style="opacity:0.914" fill="#000000" d="M 1002.5,9.5 C 1012.51,9.33352 1022.51,9.50019 1032.5,10C 1033,10.5 1033.5,11 1034,11.5C 1034.23,52.7802 1034.56,94.1135 1035,135.5C 1039.43,138.633 1044.27,139.3 1049.5,137.5C 1049.82,145.42 1049.48,153.253 1048.5,161C 1035.75,164.825 1023.42,163.825 1011.5,158C 1005.65,152.473 1002.48,145.639 1002,137.5C 1001.17,94.7624 1001.34,52.0957 1002.5,9.5 Z"/></g>
<g><path style="opacity:0.945" fill="#000000" d="M 45.5,11.5 C 61.6395,10.1023 77.3062,12.1023 92.5,17.5C 92.6665,28.505 92.4998,39.505 92,50.5C 82.1086,43.5354 71.1086,39.5354 59,38.5C 44.8272,39.5344 39.4939,46.8677 43,60.5C 44.8333,62.3333 46.6667,64.1667 48.5,66C 61.2803,71.8893 73.6136,78.556 85.5,86C 95.2205,94.9739 100.22,106.141 100.5,119.5C 98.7686,147.065 84.102,161.898 56.5,164C 39.2279,165.411 22.7279,162.578 7,155.5C 6.16764,144.818 6.33431,134.151 7.5,123.5C 22.6076,134.278 39.2742,138.111 57.5,135C 66.7713,130.107 68.938,122.941 64,113.5C 62.8333,112.333 61.6667,111.167 60.5,110C 48.6736,103.921 37.0069,97.5875 25.5,91C 10.7131,78.9822 5.21305,63.4822 9,44.5C 13.8422,25.3388 26.0088,14.3388 45.5,11.5 Z"/></g>
<g><path style="opacity:0.941" fill="#000000" d="M 720.5,11.5 C 736.666,9.81311 752.166,12.1464 767,18.5C 767.819,28.7438 767.652,38.9105 766.5,49C 761.045,47.28 755.711,44.9467 750.5,42C 744.759,40.3704 738.926,39.2037 733,38.5C 718.07,40.0472 713.07,47.7139 718,61.5C 719.167,62.6667 720.333,63.8333 721.5,65C 732.869,71.0059 744.202,77.0059 755.5,83C 768.012,91.8542 774.345,104.021 774.5,119.5C 774.418,139.722 765.085,153.555 746.5,161C 724.842,166.483 703.675,164.983 683,156.5C 682.055,156.095 681.388,155.428 681,154.5C 680.833,149.5 680.667,144.5 680.5,139.5C 680.355,133.998 680.855,128.664 682,123.5C 696.963,134.033 713.463,137.866 731.5,135C 740.771,130.107 742.938,122.941 738,113.5C 735.408,110.238 732.241,107.738 728.5,106C 717.02,100.762 706.02,94.7621 695.5,88C 683.91,75.7636 679.743,61.2636 683,44.5C 688.501,25.4963 701.001,14.4963 720.5,11.5 Z"/></g>
<g><path style="opacity:0.942" fill="#000000" d="M 828.5,26.5 C 829.833,26.5 831.167,26.5 832.5,26.5C 832.5,36.8333 832.5,47.1667 832.5,57.5C 841.833,57.5 851.167,57.5 860.5,57.5C 860.5,66.1667 860.5,74.8333 860.5,83.5C 851.167,83.5 841.833,83.5 832.5,83.5C 832.333,96.8375 832.5,110.171 833,123.5C 833.348,133.181 838.348,138.181 848,138.5C 853.964,137.677 859.797,136.344 865.5,134.5C 865.666,142.84 865.5,151.173 865,159.5C 847.977,166.463 831.144,165.963 814.5,158C 807.076,152.319 802.909,144.819 802,135.5C 801.5,118.17 801.333,100.837 801.5,83.5C 795.167,83.5 788.833,83.5 782.5,83.5C 782.264,80.7743 783.097,78.441 785,76.5C 800.455,60.5529 814.955,43.8862 828.5,26.5 Z"/></g>
<g><path style="opacity:0.939" fill="#000000" d="M 283.5,55.5 C 297.81,54.1959 310.31,58.1959 321,67.5C 321.212,64.2423 321.712,61.0757 322.5,58C 332.078,57.1824 341.578,57.3491 351,58.5C 351.829,93.0714 351.662,127.571 350.5,162C 341.167,162.667 331.833,162.667 322.5,162C 321.707,158.589 321.207,155.089 321,151.5C 312.271,160.306 301.604,164.639 289,164.5C 261.75,162.901 245.083,148.901 239,122.5C 235.023,100.771 240.856,82.2707 256.5,67C 264.655,60.9152 273.655,57.0819 283.5,55.5 Z M 288.5,83.5 C 311.066,81.5662 321.566,91.8995 320,114.5C 318.709,127.122 311.876,134.622 299.5,137C 285.64,138.464 276.474,132.631 272,119.5C 268.164,102.855 273.664,90.8549 288.5,83.5 Z"/></g>
<g><path style="opacity:0.919" fill="#000000" d="M 431.5,55.5 C 434.777,55.2161 437.943,55.5495 441,56.5C 441.5,65.8274 441.666,75.1607 441.5,84.5C 421.781,78.766 411.614,86.0993 411,106.5C 410.5,125.164 410.333,143.83 410.5,162.5C 399.833,162.5 389.167,162.5 378.5,162.5C 378.5,127.5 378.5,92.5 378.5,57.5C 388.172,57.3335 397.839,57.5002 407.5,58C 408.293,61.4106 408.793,64.9106 409,68.5C 414.811,61.18 422.311,56.8467 431.5,55.5 Z"/></g>
<g><path style="opacity:0.943" fill="#000000" d="M 512.5,55.5 C 544.112,55.2888 562.945,70.6221 569,101.5C 572.079,126.301 563.246,145.468 542.5,159C 528.409,165.221 514.076,165.888 499.5,161C 495.581,159.46 492.081,157.293 489,154.5C 488.5,172.164 488.333,189.83 488.5,207.5C 477.833,207.5 467.167,207.5 456.5,207.5C 456.5,157.5 456.5,107.5 456.5,57.5C 465.839,57.3335 475.173,57.5002 484.5,58C 485.293,61.4106 485.793,64.9106 486,68.5C 493.396,61.0514 502.229,56.7181 512.5,55.5 Z M 504.5,83.5 C 524.498,81.3068 535.164,90.1401 536.5,110C 535.769,128.734 526.103,137.734 507.5,137C 494.285,132.931 487.285,123.931 486.5,110C 487.298,97.4098 493.298,88.5765 504.5,83.5 Z"/></g>
<g><path style="opacity:0.94" fill="#000000" d="M 1160.5,91.5 C 1160.5,101.167 1160.5,110.833 1160.5,120.5C 1137.5,120.5 1114.5,120.5 1091.5,120.5C 1094.68,131.288 1102.01,137.122 1113.5,138C 1120.88,138.747 1128.21,138.414 1135.5,137C 1142.89,135.424 1149.89,133.091 1156.5,130C 1156.83,130.333 1157.17,130.667 1157.5,131C 1156.85,139.441 1156.18,147.941 1155.5,156.5C 1130.37,167.151 1105.37,166.985 1080.5,156C 1068.41,147.991 1061.25,136.824 1059,122.5C 1055.21,100.812 1061.04,82.3121 1076.5,67C 1098.99,52.1242 1121.65,51.7909 1144.5,66C 1152.53,72.9072 1157.86,81.4072 1160.5,91.5 Z M 1109.5,81.5 C 1121.58,81.5807 1128.24,87.5807 1129.5,99.5C 1116.83,99.5 1104.17,99.5 1091.5,99.5C 1093.21,89.12 1099.21,83.12 1109.5,81.5 Z"/></g>
<g><path style="opacity:0.932" fill="#000000" d="M 871.5,57.5 C 882.838,57.3335 894.172,57.5001 905.5,58C 913.721,77.6202 921.555,97.4535 929,117.5C 937.534,98.4255 945.534,79.0922 953,59.5C 953.5,59 954,58.5 954.5,58C 965.495,57.5002 976.495,57.3335 987.5,57.5C 966.794,107.25 945.794,156.917 924.5,206.5C 913.186,207.499 901.853,207.832 890.5,207.5C 891.487,202.704 892.987,198.037 895,193.5C 901.52,180.628 907.353,167.461 912.5,154C 898.401,121.975 884.735,89.808 871.5,57.5 Z"/></g>
<g><path style="opacity:0.93" fill="#000000" d="M 574.5,179.5 C 606.167,179.5 637.833,179.5 669.5,179.5C 669.5,187.833 669.5,196.167 669.5,204.5C 637.833,204.5 606.167,204.5 574.5,204.5C 574.5,196.167 574.5,187.833 574.5,179.5 Z"/></g>
</svg>
